<?xml version="1.0" encoding="utf-8"?>
<!-- Generator: Adobe Illustrator 16.0.0, SVG Export Plug-In . SVG Version: 6.00 Build 0)  -->
<!DOCTYPE svg PUBLIC "-//W3C//DTD SVG 1.1//EN" "http://www.w3.org/Graphics/SVG/1.1/DTD/svg11.dtd">
<svg version="1.1" id="Layer_1" xmlns="http://www.w3.org/2000/svg" xmlns:xlink="http://www.w3.org/1999/xlink" x="0px" y="0px"
	 width="32px" height="24px" viewBox="-3.917 0 32 24" enable-background="new -3.917 0 32 24" xml:space="preserve">
<title>bch</title>
<desc>Created with Sketch.</desc>
<g id="bch">
	<path id="Shape" fill="#FF9E00" d="M13.58,12.439c-0.308-0.055-0.75-0.024-1.34,0.085l-1.342,0.253l0.417,2.236
		c0.066,0.31,0.115,0.501,0.14,0.548c0.038,0.063,0.089,0.104,0.147,0.119c0.063,0.015,0.221,0.004,0.473-0.048l0.757-0.135
		c0.438-0.088,0.797-0.195,1.068-0.332c0.275-0.137,0.488-0.353,0.645-0.646c0.149-0.303,0.194-0.621,0.131-0.986
		c-0.062-0.304-0.178-0.548-0.359-0.734C14.129,12.614,13.887,12.492,13.58,12.439z"/>
	<path id="Shape_1_" fill="#FF9E00" d="M12.676,8.373c-0.271-0.032-0.736,0.009-1.402,0.135l-1.135,0.211l0.471,2.524l1.138-0.211
		c0.592-0.111,1.021-0.247,1.29-0.401c0.268-0.146,0.448-0.336,0.557-0.563c0.103-0.223,0.137-0.469,0.084-0.735
		c-0.049-0.271-0.158-0.492-0.334-0.657C13.174,8.51,12.955,8.414,12.676,8.373z"/>
	<path id="Shape_2_" fill="#FF9E00" d="M7.671,0.813c-6.179,2.391-9.252,9.338-6.859,15.521c2.394,6.183,9.342,9.252,15.521,6.86
		c6.178-2.392,9.254-9.341,6.86-15.522C20.803,1.488,13.852-1.581,7.671,0.813z M16.115,8.483c0.064,0.339,0.053,0.679-0.035,1.018
		c-0.09,0.331-0.248,0.646-0.481,0.93c-0.232,0.283-0.56,0.548-0.979,0.786c0.504,0.03,0.9,0.1,1.187,0.202
		c0.407,0.139,0.758,0.371,1.049,0.706c0.285,0.333,0.471,0.728,0.562,1.191c0.103,0.548,0.027,1.088-0.219,1.602
		c-0.24,0.533-0.646,0.973-1.206,1.326c-0.209,0.125-0.452,0.25-0.729,0.362l0.341,1.847l-1.752,0.332l-0.318-1.707
		c-0.047,0-0.084,0.014-0.129,0.022l-0.999,0.188l0.319,1.701l-1.754,0.328l-0.32-1.706l-2.672,0.497l-0.269-1.432l0.409-0.082
		c0.274-0.045,0.452-0.1,0.539-0.172c0.091-0.063,0.145-0.145,0.169-0.233c0.025-0.095,0.009-0.294-0.051-0.595L7.698,9.823
		C7.644,9.52,7.586,9.325,7.529,9.247C7.474,9.169,7.395,9.114,7.291,9.089C7.187,9.053,6.991,9.061,6.725,9.118L6.312,9.189
		L6.045,7.756l2.677-0.495L8.406,5.55l1.757-0.324l0.312,1.702l1.128-0.209l-0.315-1.703l1.752-0.327l0.34,1.822
		c0.27,0,0.521,0.016,0.731,0.065c0.552,0.121,1.003,0.345,1.356,0.686C15.815,7.604,16.031,8.015,16.115,8.483z"/>
</g>
<g>
	<path fill="#FF9E00" d="M-2,12c0-4.462,2.106-8.435,5.368-11h-7.285v22h7.285C0.106,20.435-2,16.463-2,12z"/>
	<path fill="#FF9E00" d="M20.632,1C23.894,3.565,26,7.538,26,12c0,4.463-2.106,8.435-5.368,11h7.451V1H20.632z"/>
</g>
</svg>
