<?xml version="1.0" encoding="utf-8"?>
<!-- Generator: Adobe Illustrator 16.0.0, SVG Export Plug-In . SVG Version: 6.00 Build 0)  -->
<!DOCTYPE svg PUBLIC "-//W3C//DTD SVG 1.1//EN" "http://www.w3.org/Graphics/SVG/1.1/DTD/svg11.dtd">
<svg version="1.1" id="Layer_1" xmlns="http://www.w3.org/2000/svg" xmlns:xlink="http://www.w3.org/1999/xlink" x="0px" y="0px"
	 width="24px" height="24px" viewBox="0 0 24 24" enable-background="new 0 0 24 24" xml:space="preserve">
<title>btc</title>
<desc>Created with Sketch.</desc>
<g id="btc">
	<path id="Combined-Shape" fill="#FF9E00" d="M13.342,13.038c0.266,0.159,0.448,0.36,0.559,0.603
		c0.101,0.238,0.123,0.508,0.068,0.814c-0.07,0.363-0.228,0.645-0.476,0.873c-0.252,0.219-0.528,0.344-0.834,0.369
		c-0.305,0.029-0.676,0-1.118-0.075l-0.755-0.146c-0.252-0.043-0.402-0.092-0.456-0.127c-0.051-0.035-0.083-0.091-0.095-0.166
		c-0.006-0.051,0.017-0.248,0.067-0.56l0.419-2.237l1.342,0.248C12.652,12.745,13.075,12.876,13.342,13.038z M13.965,8.918
		c0.246,0.139,0.416,0.31,0.516,0.524c0.103,0.218,0.127,0.462,0.074,0.734c-0.049,0.266-0.168,0.485-0.344,0.655
		c-0.184,0.173-0.422,0.283-0.725,0.323c-0.303,0.048-0.754,0.018-1.345-0.091l-1.138-0.214l0.473-2.522l1.133,0.212
		C13.277,8.662,13.727,8.791,13.965,8.918z M12.027,0.062c6.627-0.001,12.002,5.37,12.002,12.001c0,6.626-5.375,12-12.002,12
		c-6.626,0-11.999-5.373-11.999-12C0.028,5.431,5.402,0.062,12.027,0.062z M17.134,10.264c0.091-0.468,0.037-0.928-0.168-1.374
		c-0.206-0.445-0.547-0.817-1.017-1.129c-0.18-0.123-0.41-0.226-0.66-0.325l0.341-1.822l-1.752-0.327l-0.319,1.702l-1.125-0.212
		l0.32-1.7l-1.754-0.331l-0.323,1.71L8.001,5.952L7.734,7.383l0.41,0.083c0.271,0.042,0.455,0.106,0.539,0.177
		C8.771,7.706,8.826,7.784,8.85,7.877c0.023,0.094,0.009,0.296-0.051,0.599l-1.08,5.773c-0.054,0.3-0.108,0.493-0.167,0.571
		c-0.055,0.074-0.135,0.131-0.241,0.158c-0.107,0.035-0.293,0.023-0.565-0.035l-0.412-0.071l-0.266,1.431l2.671,0.502l-0.316,1.707
		l1.753,0.327l0.317-1.702l1,0.184c0.044,0.009,0.085,0.009,0.129,0.025l-0.319,1.707l1.753,0.322l0.348-1.846
		c0.301-0.004,0.574-0.031,0.812-0.074c0.651-0.126,1.186-0.391,1.604-0.801c0.416-0.391,0.678-0.867,0.781-1.416
		c0.084-0.465,0.053-0.898-0.094-1.312c-0.15-0.418-0.392-0.761-0.723-1.037c-0.229-0.197-0.576-0.406-1.034-0.616
		c0.478-0.069,0.878-0.199,1.196-0.379c0.322-0.18,0.584-0.418,0.785-0.693C16.938,10.915,17.072,10.603,17.134,10.264z"/>
</g>
</svg>
