<?xml version="1.0" encoding="UTF-8"?>
<svg width="24px" height="24px" viewBox="0 0 24 24" version="1.1" xmlns="http://www.w3.org/2000/svg" xmlns:xlink="http://www.w3.org/1999/xlink">
    <!-- Generator: Sketch 53.2 (72643) - https://sketchapp.com -->
    <title>Dash</title>
    <desc>Created with Sketch.</desc>
    <g id="Dash" stroke="none" stroke-width="1" fill="none" fill-rule="evenodd">
        <path d="M12,0 C5.373,0 0,5.373 0,12 C0,18.628 5.373,24 12,24 C18.628,24 24,18.628 24,12 C24,5.373 18.628,0 12,0 Z M4.55,10.886 L10.513,10.886 L9.775,13.108 L3.749,13.108 L4.55,10.886 Z M20.102,9.662 L18.618,14.33 C18.483,14.654 18.321,14.959 18.123,15.256 C17.889,15.553 17.619,15.822 17.322,16.056 C17.016,16.308 16.656,16.488 16.342,16.668 C16.028,16.784 15.696,16.848 15.362,16.857 L4.118,16.857 L4.919,14.456 L15.056,14.456 L16.657,9.544 L6.52,9.544 L7.321,7.142 L18.51,7.142 C18.806,7.133 19.103,7.196 19.373,7.331 C19.634,7.43 19.859,7.627 19.985,7.879 C20.129,8.122 20.21,8.4 20.228,8.68 C20.282,9.015 20.237,9.356 20.102,9.662 Z" id="Shape" fill="#8A8A8F" fill-rule="nonzero"></path>
    </g>
</svg>